<svg width="182" height="30" viewBox="0 0 182 30" fill="none" xmlns="http://www.w3.org/2000/svg">
<g clip-path="url(#clip0_2205_13143)">
<path d="M22.0973 1.31403L24.4744 13.5014L23.2302 15.4588L9.52441 10.4742L11.0104 2.74751C13.7598 -0.290497 18.6362 -0.868778 22.0973 1.31403Z" fill="#141D52"/>
<path d="M9.27738 11.6606L22.5159 16.4905L18.957 21.9882C16.0528 23.495 12.4505 23.1747 9.79356 21.3014C9.16057 20.8561 8.39717 20.1638 7.93805 19.5421C7.881 19.4633 7.78591 19.371 7.78863 19.2733L9.27738 11.6606Z" fill="#141D52"/>
<path d="M24.3853 15.8824L25.5942 14.0009L39.4466 12.0516C39.52 12.0543 39.7509 12.2769 39.8243 12.3448C42.5138 14.9376 41.476 19.5801 37.9878 20.8181L24.3853 15.8796V15.8824Z" fill="#141D52"/>
<path d="M36.5423 21.5674C36.6293 21.6679 36.1973 22.819 36.1158 23.0036C35.4068 24.5837 34.0049 25.8434 32.3613 26.3946L27.6832 20.9593L24.5997 26.1014C24.5046 26.2045 23.9015 26.1394 23.7358 26.1204C22.0515 25.9113 20.5899 24.6163 20.2122 22.9602C20.1688 22.7756 20.09 22.5231 20.1661 22.3466L23.6733 16.9493L23.7331 16.9195L36.5451 21.5701L36.5423 21.5674Z" fill="#141D52"/>
<path d="M39.1557 10.8977L27.0908 12.5729L32.5786 3.40181C32.6003 3.3638 32.6275 3.34751 32.6682 3.33937C32.7905 3.31493 33.1056 3.33122 33.2441 3.33937C34.5319 3.40453 35.8359 3.90679 36.8438 4.69412C38.6911 6.13303 39.6393 8.58462 39.153 10.8977H39.1557Z" fill="#141D52"/>
<path d="M8.12002 11.2398L6.62855 18.9747C6.40306 19.0344 6.17486 19.0887 5.94123 19.124C2.45026 19.6425 -0.519092 16.6643 0.0758656 13.1756C0.355686 11.5303 1.49127 10.0507 3.0262 9.39095L8.12002 11.2398Z" fill="#141D52"/>
<path d="M25.5421 12.7249L23.3823 1.53665C26.0067 0.070588 29.5058 0.695022 31.4346 2.98914L25.5448 12.7249H25.5421Z" fill="#141D52"/>
<path d="M27.9112 22.99L31.3478 27.1032C31.4157 27.2199 31.3043 27.6624 31.2636 27.8118C30.8751 29.2371 29.4597 30.1656 27.9927 29.9728C26.5256 29.7801 25.3955 28.5258 25.4118 27.0706L27.8487 23.0118L27.9112 22.9928V22.99Z" fill="#141D52"/>
<path d="M9.61166 3.64344L8.3647 10.0534L3.89844 8.44344C4.05872 6.52941 5.28396 4.82987 7.03894 4.06425C7.86211 3.70588 8.71787 3.59729 9.61166 3.64344Z" fill="#141D52"/>
<path d="M56.7383 22.2054V7.97376H59.1752V9.56199C59.1752 9.69774 59.2295 9.75475 59.368 9.75475C59.5066 9.75475 59.5609 9.6733 59.6696 9.53484C60.6014 8.30226 62.0521 7.5638 64.1331 7.5638C67.692 7.5638 69.8844 9.61629 69.8844 13.3113V22.2054H67.4204V13.7213C67.4204 11.1204 66.0511 9.75204 63.5871 9.75204C60.8486 9.75204 59.205 11.3946 59.205 14.8154V22.2054H56.741H56.7383Z" fill="#141D52"/>
<path d="M87.1111 15.0896C87.1111 20.0145 83.8239 22.6154 79.6891 22.6154C75.5543 22.6154 72.2671 20.0145 72.2671 15.0896C72.2671 10.1647 75.5543 7.5638 79.6891 7.5638C83.8239 7.5638 87.1111 10.1647 87.1111 15.0896ZM74.7583 15.0896C74.7583 18.5104 76.8121 20.4271 79.6864 20.4271C82.5607 20.4271 84.6145 18.5104 84.6145 15.0896C84.6145 11.6688 82.5607 9.75204 79.6864 9.75204C76.8121 9.75204 74.7583 11.6688 74.7583 15.0896Z" fill="#141D52"/>
<path d="M103.87 15.0896C103.87 20.0145 100.583 22.6154 96.4484 22.6154C92.3136 22.6154 89.0264 20.0145 89.0264 15.0896C89.0264 10.1647 92.3136 7.5638 96.4484 7.5638C100.583 7.5638 103.87 10.1647 103.87 15.0896ZM91.5203 15.0896C91.5203 18.5104 93.5741 20.4271 96.4484 20.4271C99.3227 20.4271 101.376 18.5104 101.376 15.0896C101.376 11.6688 99.3227 9.75204 96.4484 9.75204C93.5741 9.75204 91.5203 11.6688 91.5203 15.0896Z" fill="#141D52"/>
<path d="M118.084 12.4887H115.566C115.373 10.5448 114.061 9.67059 111.76 9.67059C109.459 9.67059 108.5 10.5475 108.5 11.7231C108.5 12.8986 109.347 13.3113 111.293 13.6805L113.319 14.0633C115.922 14.5548 118.193 15.4045 118.193 18.2226C118.193 21.0407 116.03 22.6154 112.36 22.6154C108.69 22.6154 105.938 21.0271 105.707 17.6335H108.212C108.405 19.5231 109.978 20.5059 112.36 20.5059C114.743 20.5059 115.729 19.5882 115.729 18.3584C115.729 17.1285 114.743 16.7023 112.77 16.333L110.744 15.9502C107.965 15.429 106.033 14.4869 106.033 11.7502C106.033 9.01357 108.388 7.5638 111.757 7.5638C115.126 7.5638 117.81 9.01357 118.084 12.4887Z" fill="#141D52"/>
<path d="M119.809 8.52217V7.97375H122.219L124.957 19.5502C125.012 19.7973 125.093 19.8787 125.286 19.8787C125.479 19.8787 125.56 19.7973 125.615 19.5502L128.353 7.97375H132.597L135.335 19.5502C135.389 19.7973 135.471 19.8787 135.664 19.8787C135.857 19.8787 135.938 19.7973 135.992 19.5502L138.731 7.97375H141.141V8.52217L137.799 22.2054H133.569L130.749 10.2733C130.695 10.0805 130.613 10.0262 130.475 10.0262C130.309 10.0262 130.255 10.0805 130.2 10.2733L127.381 22.2054H123.151L119.809 8.52217Z" fill="#141D52"/>
<path d="M147.932 13.8842L153.135 13.6643V12.8986C153.135 10.8733 152.094 9.69774 149.576 9.69774C147.058 9.69774 146.044 10.8733 145.99 12.3529H143.442C143.55 9.64344 145.468 7.5638 149.576 7.5638C153.684 7.5638 155.517 9.64344 155.517 13.0371V22.2054H153.162V20.7014C153.162 20.5928 153.108 20.5385 152.999 20.5385C152.89 20.5385 152.833 20.5656 152.725 20.7014C151.711 22.0561 150.206 22.6181 148.343 22.6181C144.784 22.6181 142.73 20.7584 142.73 18.0217C142.73 15.5593 144.374 14.0389 147.932 13.8896V13.8842ZM148.617 20.4814C151.356 20.4814 153.135 18.9204 153.135 15.9122V15.7466L147.932 15.9665C146.014 16.048 145.194 16.7864 145.194 18.019C145.194 19.5231 146.427 20.4814 148.617 20.4814Z" fill="#141D52"/>
<path d="M158.723 22.2054V7.97376H161.187V9.8905C161.187 10.0262 161.242 10.0833 161.38 10.0833C161.543 10.0833 161.6 10.0018 161.654 9.86335C162.285 8.49502 163.271 7.91946 165.213 7.91946H166.803V10.3276H164.83C162.448 10.3276 161.187 11.3946 161.187 14.1312V22.2054H158.723Z" fill="#141D52"/>
<path d="M182 17.6905C181.59 19.8516 179.726 22.6154 175.208 22.6154C170.69 22.6154 167.979 19.743 167.979 15.0896C167.979 10.4362 170.772 7.5638 175.154 7.5638C179.536 7.5638 181.946 10.4362 181.946 14.4054V15.7738H170.429C170.592 18.9747 172.565 20.4814 175.208 20.4814C177.851 20.4814 179.028 19.3059 179.424 17.6905H182ZM170.5 13.7213H179.482C179.373 11.0932 177.756 9.69774 175.154 9.69774C172.798 9.69774 170.91 11.0389 170.497 13.7213H170.5Z" fill="#141D52"/>
</g>
<defs>
<clipPath id="clip0_2205_13143">
<rect width="182" height="30" fill="white"/>
</clipPath>
</defs>
</svg>